<?xml version="1.0" encoding="utf-8"?>
<!-- Generator: Adobe Illustrator 26.5.0, SVG Export Plug-In . SVG Version: 6.00 Build 0)  -->
<svg version="1.1" id="Livello_1" xmlns="http://www.w3.org/2000/svg" xmlns:xlink="http://www.w3.org/1999/xlink" x="0px" y="0px"
	 viewBox="0 0 1802 971" style="enable-background:new 0 0 1802 971;" xml:space="preserve">
<style type="text/css">
	.st0{fill:none;stroke:#0092FF;stroke-width:27.2568;stroke-miterlimit:10;}
	.st1{fill:#0092FF;}
	.st2{fill:none;stroke:#0092FF;stroke-width:29.8593;stroke-miterlimit:10;}
	.st3{fill:#FF4800;}
</style>
<g>
	<path d="M1337.2,759.7c-0.6,0.3-1.2,0.6-1.8,1c-6.8,4-13.8,7.9-21.1,11.7c-95.2,54.1-232.8,81.2-412.9,81.2c-0.1,0-0.3,0-0.4,0
		c-0.1,0-0.3,0-0.4,0c-180.1,0-317.7-27.1-412.9-81.2c-127.1-63.9-190.6-159.5-190.6-286.9c0-119,55.7-210.2,167-273.8
		c0.2-0.1,0.5-0.3,0.7-0.4c0.6-0.3,1.2-0.6,1.8-1c6.8-4,13.9-7.9,21.1-11.7c95.2-54.1,232.8-81.2,412.9-81.2c0.1,0,0.3,0,0.4,0
		c0.1,0,0.3,0,0.4,0c180.1,0,317.7,27.1,412.9,81.2c127.1,63.9,190.6,159.5,190.6,286.9c0,119-55.7,210.2-167,273.8
		C1337.7,759.4,1337.4,759.6,1337.2,759.7z M1641.3,351.7c-71.9-31.5-169-47.3-291.4-47.3c-0.9,0-2,0-3,0c-91.3,0-815.6,0-891.8,0
		c-1.1,0-2.1,0-3,0c-122.4,0-219.5,15.7-291.4,47.1c-71.9,31.4-107.8,76.1-107.8,134c0,57.7,36,102.3,107.8,133.8
		c71.9,31.5,169,47.3,291.4,47.3c0.9,0,2,0,3,0c76.3,0,800.6,0,891.8,0c1.1,0,2.1,0,3,0c122.4,0,219.5-15.7,291.4-47.1
		c71.9-31.4,107.8-76.1,107.8-134C1749.2,427.8,1713.2,383.2,1641.3,351.7z"/>
</g>
</svg>
