<svg xmlns="http://www.w3.org/2000/svg" version="1.1" xmlns:xlink="http://www.w3.org/1999/xlink" width="1000" height="1000"><g clip-path="url(#SvgjsClipPath1143)"><rect width="1000" height="1000" fill="#ffffff"></rect><g transform="matrix(6.4878892733564015,0,0,6.4878892733564015,50,304.71453287197227)"><svg xmlns="http://www.w3.org/2000/svg" version="1" xmlns:xlink="http://www.w3.org/1999/xlink" id="Livello_1" x="0px" y="0px" viewBox="0 0 138.72 60.2" enable-background="new 0 0 138.72 60.2" xml:space="preserve" width="138.72" height="60.2"><path d="M105.03,52.52c-0.05,0.03-0.1,0.05-0.14,0.08c-0.56,0.33-1.13,0.65-1.73,0.96c-7.78,4.42-19.04,6.64-33.76,6.64
	c-0.01,0-0.02,0-0.04,0c-0.01,0-0.02,0-0.03,0c-14.73,0-25.98-2.21-33.76-6.64C25.17,48.34,19.97,40.52,19.97,30.1
	c0-9.73,4.55-17.19,13.66-22.39c0.02-0.01,0.04-0.02,0.06-0.04c0.05-0.03,0.1-0.05,0.14-0.08c0.56-0.33,1.13-0.65,1.73-0.96
	C43.34,2.21,54.6,0,69.32,0c0.01,0,0.02,0,0.03,0c0.01,0,0.02,0,0.04,0c14.73,0,25.98,2.21,33.76,6.64
	c10.39,5.22,15.59,13.04,15.59,23.46c0,9.73-4.55,17.19-13.66,22.39C105.07,52.5,105.05,52.51,105.03,52.52z M129.9,19.16
	c-5.88-2.58-13.82-3.87-23.83-3.87c-0.07,0-0.16,0-0.25,0c-7.47,0-66.69,0-72.93,0c-0.09,0-0.17,0-0.25,0
	c-10.01,0-17.95,1.28-23.83,3.85C2.94,21.71,0,25.36,0,30.1c0,4.72,2.94,8.36,8.82,10.94c5.88,2.58,13.82,3.87,23.83,3.87
	c0.07,0,0.16,0,0.25,0c6.24,0,65.47,0,72.93,0c0.09,0,0.17,0,0.25,0c10.01,0,17.95-1.28,23.83-3.85c5.88-2.57,8.82-6.22,8.82-10.96
	C138.72,25.38,135.77,21.74,129.9,19.16z"></path></svg></g></g><defs><clipPath id="SvgjsClipPath1143"><rect width="1000" height="1000" x="0" y="0" rx="300" ry="300"></rect></clipPath></defs></svg>